# xmcd CD database file
#
# Track frame offsets:
#	150
#	21930
#	43982
#	63540
#	85702
#
# Disc length: 1362 seconds
#
# Revision: 1
# Processed by: cddbd v1.5.2PL0 Copyright (c) Steve Scherf et al.
# Submitted via: CDex 1.51
#
DISCID=3d055005
DTITLE=Audioslave - Sessions @ AOL Music Live
DYEAR=2005
DGENRE=Hard Rock
TTITLE0=Be Yourself (Live)
TTITLE1=Loud Love (Live)
TTITLE2=Doesn't Remind Me (Live)
TTITLE3=Out Of Exile (Live)
TTITLE4=Sleep Now In The Fire (Live)
EXTD=YEAR: 2005
EXTT0=
EXTT1=
EXTT2=
EXTT3=
EXTT4=
PLAYORDER=
